<svg xmlns="http://www.w3.org/2000/svg" width="73" height="11"><g fill="none" fill-rule="evenodd"><path fill="#1A1A1A" fill-rule="nonzero" d="M.7.8h2.7c.6 0 1 0 1.3.2.4.1.8.3 1.1.6l.7 1.2.2 1.7c0 .6 0 1-.2 1.5s-.4 1-.8 1.3l-1 .5-1.3.2H.7V.8zm1.5 1.3v4.7h2l.5-.4c.2-.1.3-.3.4-.7l.1-1.3-.1-1.2-.4-.7A1.4 1.4 0 0 0 4 2H2.2zm5.7 0V.8h1.4v1.3H8zM8 8V2.8h1.4V8H8zm2.3-1.5l1.4-.2c0 .3.2.5.4.6.1.2.4.2.7.2.4 0 .6 0 .8-.2a.4.4 0 0 0 .2-.3.4.4 0 0 0 0-.3l-.6-.2a7.4 7.4 0 0 1-2-.6 1.3 1.3 0 0 1-.7-1.2c0-.5.2-.8.6-1.1.3-.4.9-.5 1.6-.5.7 0 1.2.1 1.6.3.3.3.6.6.7 1l-1.3.3a.8.8 0 0 0-.3-.5l-.7-.1-.7.1a.3.3 0 0 0-.2.3l.1.3 1.3.3c.7.2 1.3.4 1.5.7.3.2.5.5.5 1s-.2.9-.6 1.2c-.4.3-1 .5-1.8.5-.7 0-1.2-.1-1.7-.4a2 2 0 0 1-.8-1.2zm10.6-2.2l-1.4.3a1 1 0 0 0-.3-.6 1 1 0 0 0-.6-.2 1 1 0 0 0-.8.3c-.2.3-.3.7-.3 1.2 0 .6 0 1 .3 1.3.2.3.5.4.8.4.3 0 .5 0 .7-.2.1-.2.3-.4.3-.8l1.4.2c-.2.7-.4 1.1-.8 1.4-.4.4-1 .5-1.6.5-.8 0-1.4-.2-1.8-.7-.5-.5-.7-1.1-.7-2 0-.8.2-1.5.7-2 .4-.5 1-.7 1.8-.7.6 0 1.1.1 1.5.4.4.3.6.7.8 1.2zm.7 1c0-.4.1-.9.4-1.3.2-.4.5-.7 1-1a2.8 2.8 0 0 1 1.3-.3 2.6 2.6 0 0 1 2.7 2.7c0 .8-.3 1.4-.8 2-.5.5-1.1.7-1.9.7a3 3 0 0 1-1.4-.3 2.2 2.2 0 0 1-1-1c-.2-.4-.3-.9-.3-1.5zm1.4.1c0 .5.2 1 .4 1.2.2.3.5.4.9.4s.7-.1.9-.4c.2-.3.4-.7.4-1.2s-.2-.9-.4-1.2a1.2 1.2 0 0 0-.9-.4c-.4 0-.7.2-.9.4-.2.3-.4.7-.4 1.2zM29.4 8l-2.1-5.2h1.4l1 2.7.3.8a11.5 11.5 0 0 0 .3-.8l1-2.7h1.4l-2 5.2h-1.3zm7.1-1.6l1.4.2c-.2.5-.5.9-.9 1.1-.3.3-.8.4-1.4.4-.9 0-1.5-.3-2-.9a3 3 0 0 1-.5-1.8c0-.8.2-1.5.7-2 .4-.5 1-.7 1.7-.7.8 0 1.4.3 1.8.8.5.5.7 1.3.7 2.3h-3.5c0 .4.1.7.3 1 .3.2.5.3.8.3a.8.8 0 0 0 .6-.2l.3-.5zm0-1.4c0-.4 0-.7-.2-1a1 1 0 0 0-.7-.3 1 1 0 0 0-.8.4c-.2.2-.3.5-.3.9h2zm3.9 3H39V2.8h1.3v.8c.2-.4.4-.6.6-.7l.6-.2c.3 0 .6 0 .9.3l-.5 1.2-.6-.3a.8.8 0 0 0-.5.2l-.3.6-.1 1.7V8z"/><path fill="#FF6900" d="M57.8 6.3h-3l1-6.2h-1.5a.2.2 0 0 0-.2.2l-1.4 7.8h4.6a.2.2 0 0 0 .2-.2l.3-1.6zm8-6.2l-1 5.5c-.3 1.8-1.5 2.6-3.3 2.6-1.8 0-2.9-1.3-2.6-3l1-4.9a.2.2 0 0 1 .1-.2h1.6l-1 5.3c0 .7.4 1.2 1 1.2.7 0 1.3-.4 1.4-1.2l1-5a.2.2 0 0 1 .2-.3h1.5zM46 4.7h-1.5a.2.2 0 0 0-.3.2L44 6.3h1.8l-.3 1.8H47a.2.2 0 0 0 .3-.2l.2-1.6h1.1c2 0 3.3-1.1 3.6-2.9.3-2-.8-3.3-2.8-3.3H47a.2.2 0 0 0-.2.2l-.2 1.4h2.7c1 0 1.4.6 1.2 1.6-.1 1-.9 1.4-1.8 1.4h-.9l.3-1.7h-1.6a.2.2 0 0 0-.2.2L46 4.7zm20.8 1a3 3 0 0 0 2 .9c.6 0 1.2-.3 1.3-.8 0-.6-.5-.8-1.3-1-1.2-.4-2.3-1-2-2.7.2-1.5 1.5-2.1 3-2.1 1 0 1.9.3 2.8 1l-1 1.2a3.3 3.3 0 0 0-2-.6c-.6 0-1 .3-1.1.7 0 .6.4.7 1 1 1.1.3 2.7.8 2.3 2.7-.3 1.7-1.8 2.2-3.2 2.2-1.2 0-2-.4-3-1.2l1.2-1.3z"/><path fill="#1A1A1A" d="M.5 10h71v1H.5z"/></g></svg>